<mxfile host="app.diagrams.net" agent="Mozilla/5.0 (Windows NT 10.0; Win64; x64) AppleWebKit/537.36 (KHTML, like Gecko) Chrome/135.0.0.0 Safari/537.36 Edg/135.0.0.0" version="26.2.9">
  <diagram id="R2lEEEUBdFMjLlhIrx00" name="Page-1">
    <mxGraphModel dx="816" dy="544" grid="1" gridSize="10" guides="1" tooltips="1" connect="1" arrows="1" fold="1" page="1" pageScale="1" pageWidth="850" pageHeight="1100" math="0" shadow="0" extFonts="Permanent Marker^https://fonts.googleapis.com/css?family=Permanent+Marker">
      <root>
        <mxCell id="0" />
        <mxCell id="1" parent="0" />
        <mxCell id="2q2u-ZLlXRr1YXiQmKhc-1" value="老人" style="rounded=0;whiteSpace=wrap;html=1;" vertex="1" parent="1">
          <mxGeometry x="50" y="20" width="100" height="30" as="geometry" />
        </mxCell>
        <mxCell id="2q2u-ZLlXRr1YXiQmKhc-2" value="" style="endArrow=classic;html=1;rounded=0;" edge="1" parent="1">
          <mxGeometry width="50" height="50" relative="1" as="geometry">
            <mxPoint x="99.71000000000001" y="50" as="sourcePoint" />
            <mxPoint x="99.71000000000001" y="90" as="targetPoint" />
          </mxGeometry>
        </mxCell>
        <mxCell id="2q2u-ZLlXRr1YXiQmKhc-3" value="分析语音呼叫" style="ellipse;whiteSpace=wrap;html=1;aspect=fixed;" vertex="1" parent="1">
          <mxGeometry x="60" y="90" width="80" height="80" as="geometry" />
        </mxCell>
        <mxCell id="2q2u-ZLlXRr1YXiQmKhc-4" value="老人的语音呼叫" style="text;html=1;align=center;verticalAlign=middle;resizable=0;points=[];autosize=1;strokeColor=none;fillColor=none;" vertex="1" parent="1">
          <mxGeometry x="100" y="50" width="110" height="30" as="geometry" />
        </mxCell>
        <mxCell id="2q2u-ZLlXRr1YXiQmKhc-6" value="处理呼叫命令" style="ellipse;whiteSpace=wrap;html=1;aspect=fixed;" vertex="1" parent="1">
          <mxGeometry x="220" y="90" width="80" height="80" as="geometry" />
        </mxCell>
        <mxCell id="2q2u-ZLlXRr1YXiQmKhc-7" value="" style="endArrow=classic;html=1;rounded=0;" edge="1" parent="1">
          <mxGeometry width="50" height="50" relative="1" as="geometry">
            <mxPoint x="140" y="129.70999999999998" as="sourcePoint" />
            <mxPoint x="220" y="129.70999999999998" as="targetPoint" />
          </mxGeometry>
        </mxCell>
        <mxCell id="2q2u-ZLlXRr1YXiQmKhc-8" value="机器人" style="rounded=0;whiteSpace=wrap;html=1;" vertex="1" parent="1">
          <mxGeometry x="335" y="20" width="90" height="30" as="geometry" />
        </mxCell>
        <mxCell id="2q2u-ZLlXRr1YXiQmKhc-9" value="" style="endArrow=classic;html=1;rounded=0;exitX=0.375;exitY=0;exitDx=0;exitDy=0;exitPerimeter=0;" edge="1" parent="1" source="2q2u-ZLlXRr1YXiQmKhc-6">
          <mxGeometry width="50" height="50" relative="1" as="geometry">
            <mxPoint x="265" y="70" as="sourcePoint" />
            <mxPoint x="335" y="30" as="targetPoint" />
            <Array as="points">
              <mxPoint x="250" y="30" />
            </Array>
          </mxGeometry>
        </mxCell>
        <mxCell id="2q2u-ZLlXRr1YXiQmKhc-11" value="机器人服务指令" style="text;html=1;align=center;verticalAlign=middle;resizable=0;points=[];autosize=1;strokeColor=none;fillColor=none;" vertex="1" parent="1">
          <mxGeometry x="240" width="110" height="30" as="geometry" />
        </mxCell>
        <mxCell id="2q2u-ZLlXRr1YXiQmKhc-12" value="分析老人的视频和图像" style="ellipse;whiteSpace=wrap;html=1;aspect=fixed;" vertex="1" parent="1">
          <mxGeometry x="340" y="110" width="80" height="80" as="geometry" />
        </mxCell>
        <mxCell id="2q2u-ZLlXRr1YXiQmKhc-13" value="" style="endArrow=classic;html=1;rounded=0;" edge="1" parent="1">
          <mxGeometry width="50" height="50" relative="1" as="geometry">
            <mxPoint x="379.71" y="50" as="sourcePoint" />
            <mxPoint x="379.71" y="110" as="targetPoint" />
            <Array as="points">
              <mxPoint x="379.71" y="80" />
            </Array>
          </mxGeometry>
        </mxCell>
        <mxCell id="2q2u-ZLlXRr1YXiQmKhc-14" value="老人的视频和图像" style="text;html=1;align=center;verticalAlign=middle;resizable=0;points=[];autosize=1;strokeColor=none;fillColor=none;" vertex="1" parent="1">
          <mxGeometry x="370" y="60" width="120" height="30" as="geometry" />
        </mxCell>
        <mxCell id="2q2u-ZLlXRr1YXiQmKhc-15" value="反馈异常状况信息" style="ellipse;whiteSpace=wrap;html=1;aspect=fixed;" vertex="1" parent="1">
          <mxGeometry x="370" y="240" width="80" height="80" as="geometry" />
        </mxCell>
        <mxCell id="2q2u-ZLlXRr1YXiQmKhc-16" value="" style="endArrow=classic;html=1;rounded=0;exitX=0.75;exitY=0.875;exitDx=0;exitDy=0;exitPerimeter=0;" edge="1" parent="1" source="2q2u-ZLlXRr1YXiQmKhc-12" target="2q2u-ZLlXRr1YXiQmKhc-15">
          <mxGeometry width="50" height="50" relative="1" as="geometry">
            <mxPoint x="400" y="190" as="sourcePoint" />
            <mxPoint x="410" y="240" as="targetPoint" />
          </mxGeometry>
        </mxCell>
        <mxCell id="2q2u-ZLlXRr1YXiQmKhc-17" value="异常状况" style="text;html=1;align=center;verticalAlign=middle;resizable=0;points=[];autosize=1;strokeColor=none;fillColor=none;" vertex="1" parent="1">
          <mxGeometry x="395" y="190" width="70" height="30" as="geometry" />
        </mxCell>
        <mxCell id="2q2u-ZLlXRr1YXiQmKhc-18" value="建立视频通信连接" style="ellipse;whiteSpace=wrap;html=1;aspect=fixed;" vertex="1" parent="1">
          <mxGeometry x="220" y="220" width="80" height="80" as="geometry" />
        </mxCell>
        <mxCell id="2q2u-ZLlXRr1YXiQmKhc-19" value="" style="endArrow=classic;html=1;rounded=0;exitX=0;exitY=1;exitDx=0;exitDy=0;" edge="1" parent="1" source="2q2u-ZLlXRr1YXiQmKhc-12" target="2q2u-ZLlXRr1YXiQmKhc-18">
          <mxGeometry width="50" height="50" relative="1" as="geometry">
            <mxPoint x="280" y="250" as="sourcePoint" />
            <mxPoint x="330" y="200" as="targetPoint" />
          </mxGeometry>
        </mxCell>
        <mxCell id="2q2u-ZLlXRr1YXiQmKhc-20" value="异常状况" style="text;html=1;align=center;verticalAlign=middle;resizable=0;points=[];autosize=1;strokeColor=none;fillColor=none;" vertex="1" parent="1">
          <mxGeometry x="265" y="178" width="70" height="30" as="geometry" />
        </mxCell>
        <mxCell id="2q2u-ZLlXRr1YXiQmKhc-21" value="" style="endArrow=classic;html=1;rounded=0;exitX=-0.014;exitY=0.621;exitDx=0;exitDy=0;exitPerimeter=0;entryX=-0.014;entryY=0.381;entryDx=0;entryDy=0;entryPerimeter=0;" edge="1" parent="1" target="2q2u-ZLlXRr1YXiQmKhc-1">
          <mxGeometry width="50" height="50" relative="1" as="geometry">
            <mxPoint x="219.9999999999999" y="269.68000000000006" as="sourcePoint" />
            <mxPoint x="50" y="60" as="targetPoint" />
            <Array as="points">
              <mxPoint x="21.12" y="270" />
              <mxPoint x="20" y="30" />
            </Array>
          </mxGeometry>
        </mxCell>
        <mxCell id="2q2u-ZLlXRr1YXiQmKhc-22" value="家属和医生的视频和语音" style="text;html=1;align=center;verticalAlign=middle;resizable=0;points=[];autosize=1;strokeColor=none;fillColor=none;" vertex="1" parent="1">
          <mxGeometry x="30" y="230" width="160" height="30" as="geometry" />
        </mxCell>
        <mxCell id="2q2u-ZLlXRr1YXiQmKhc-24" value="家属" style="rounded=0;whiteSpace=wrap;html=1;" vertex="1" parent="1">
          <mxGeometry x="70" y="330" width="60" height="30" as="geometry" />
        </mxCell>
        <mxCell id="2q2u-ZLlXRr1YXiQmKhc-25" value="" style="endArrow=classic;html=1;rounded=0;entryX=1;entryY=0.75;entryDx=0;entryDy=0;" edge="1" parent="1" source="2q2u-ZLlXRr1YXiQmKhc-18">
          <mxGeometry width="50" height="50" relative="1" as="geometry">
            <mxPoint x="250" y="300" as="sourcePoint" />
            <mxPoint x="130" y="343.62" as="targetPoint" />
            <Array as="points">
              <mxPoint x="250" y="344" />
            </Array>
          </mxGeometry>
        </mxCell>
        <mxCell id="2q2u-ZLlXRr1YXiQmKhc-26" value="老人的视频和语音" style="text;html=1;align=center;verticalAlign=middle;resizable=0;points=[];autosize=1;strokeColor=none;fillColor=none;" vertex="1" parent="1">
          <mxGeometry x="130" y="310" width="120" height="30" as="geometry" />
        </mxCell>
        <mxCell id="2q2u-ZLlXRr1YXiQmKhc-28" value="老人的视频和语音" style="text;html=1;align=center;verticalAlign=middle;resizable=0;points=[];autosize=1;strokeColor=none;fillColor=none;" vertex="1" parent="1">
          <mxGeometry x="290" y="330" width="120" height="30" as="geometry" />
        </mxCell>
        <mxCell id="2q2u-ZLlXRr1YXiQmKhc-29" value="医生" style="rounded=0;whiteSpace=wrap;html=1;" vertex="1" parent="1">
          <mxGeometry x="430" y="340" width="80" height="30" as="geometry" />
        </mxCell>
        <mxCell id="2q2u-ZLlXRr1YXiQmKhc-31" value="" style="endArrow=classic;html=1;rounded=0;exitX=0.636;exitY=0.979;exitDx=0;exitDy=0;exitPerimeter=0;entryX=0;entryY=0.75;entryDx=0;entryDy=0;" edge="1" parent="1" source="2q2u-ZLlXRr1YXiQmKhc-18" target="2q2u-ZLlXRr1YXiQmKhc-29">
          <mxGeometry width="50" height="50" relative="1" as="geometry">
            <mxPoint x="270" y="374.71" as="sourcePoint" />
            <mxPoint x="440" y="374.71" as="targetPoint" />
            <Array as="points">
              <mxPoint x="280" y="360" />
              <mxPoint x="400" y="360" />
            </Array>
          </mxGeometry>
        </mxCell>
        <mxCell id="2q2u-ZLlXRr1YXiQmKhc-33" value="控制命令分析和处理" style="ellipse;whiteSpace=wrap;html=1;aspect=fixed;" vertex="1" parent="1">
          <mxGeometry x="210" y="400" width="80" height="80" as="geometry" />
        </mxCell>
        <mxCell id="2q2u-ZLlXRr1YXiQmKhc-34" value="" style="endArrow=classic;html=1;rounded=0;exitX=0.329;exitY=1.114;exitDx=0;exitDy=0;exitPerimeter=0;entryX=0;entryY=0.625;entryDx=0;entryDy=0;entryPerimeter=0;" edge="1" parent="1" source="2q2u-ZLlXRr1YXiQmKhc-24" target="2q2u-ZLlXRr1YXiQmKhc-33">
          <mxGeometry width="50" height="50" relative="1" as="geometry">
            <mxPoint x="40" y="440" as="sourcePoint" />
            <mxPoint x="210" y="440" as="targetPoint" />
            <Array as="points">
              <mxPoint x="90" y="450" />
            </Array>
          </mxGeometry>
        </mxCell>
        <mxCell id="2q2u-ZLlXRr1YXiQmKhc-35" value="机器人控制命令" style="text;html=1;align=center;verticalAlign=middle;resizable=0;points=[];autosize=1;strokeColor=none;fillColor=none;" vertex="1" parent="1">
          <mxGeometry x="90" y="420" width="110" height="30" as="geometry" />
        </mxCell>
        <mxCell id="2q2u-ZLlXRr1YXiQmKhc-36" value="" style="endArrow=classic;html=1;rounded=0;entryX=1.018;entryY=0.436;entryDx=0;entryDy=0;entryPerimeter=0;exitX=0.361;exitY=1.086;exitDx=0;exitDy=0;exitPerimeter=0;" edge="1" parent="1" source="2q2u-ZLlXRr1YXiQmKhc-29" target="2q2u-ZLlXRr1YXiQmKhc-33">
          <mxGeometry width="50" height="50" relative="1" as="geometry">
            <mxPoint x="350" y="470" as="sourcePoint" />
            <mxPoint x="400" y="420" as="targetPoint" />
            <Array as="points">
              <mxPoint x="459" y="450" />
            </Array>
          </mxGeometry>
        </mxCell>
        <mxCell id="2q2u-ZLlXRr1YXiQmKhc-37" value="机器人控制命令" style="text;html=1;align=center;verticalAlign=middle;resizable=0;points=[];autosize=1;strokeColor=none;fillColor=none;" vertex="1" parent="1">
          <mxGeometry x="325" y="410" width="110" height="30" as="geometry" />
        </mxCell>
        <mxCell id="2q2u-ZLlXRr1YXiQmKhc-38" value="" style="endArrow=classic;html=1;rounded=0;entryX=1;entryY=0.5;entryDx=0;entryDy=0;" edge="1" parent="1" source="2q2u-ZLlXRr1YXiQmKhc-33" target="2q2u-ZLlXRr1YXiQmKhc-8">
          <mxGeometry width="50" height="50" relative="1" as="geometry">
            <mxPoint x="450" y="470" as="sourcePoint" />
            <mxPoint x="580" y="90" as="targetPoint" />
            <Array as="points">
              <mxPoint x="540" y="460" />
              <mxPoint x="530" y="35" />
            </Array>
          </mxGeometry>
        </mxCell>
        <mxCell id="2q2u-ZLlXRr1YXiQmKhc-40" value="机器人运动指令" style="text;html=1;align=center;verticalAlign=middle;resizable=0;points=[];autosize=1;strokeColor=none;fillColor=none;" vertex="1" parent="1">
          <mxGeometry x="520" y="200" width="110" height="30" as="geometry" />
        </mxCell>
      </root>
    </mxGraphModel>
  </diagram>
</mxfile>
